<svg xmlns="http://www.w3.org/2000/svg" fill="white" width="512" height="512" viewBox="0 0 512 512" version="1.1">
	<path d="M 223.541 10.619 C 209.583 12.571, 189.332 17.686, 176.500 22.502 C 162.980 27.577, 137.599 40.405, 126.079 47.987 C 92.865 69.847, 68.082 97.792, 49.354 134.500 C 37.694 157.356, 30.448 179.903, 26.378 206 C 23.851 222.209, 23.842 258.145, 26.363 273.500 C 30.781 300.414, 36.921 319.589, 48.459 342.500 C 68.387 382.072, 94.819 412.139, 130 435.256 C 148.098 447.148, 174.147 459.006, 196.109 465.351 C 220.451 472.384, 255.007 474.581, 283.500 470.906 C 349.353 462.414, 413.278 422.010, 450.265 365.500 C 457.332 354.703, 469.464 330.234, 474.440 316.741 C 479.367 303.383, 483.568 286.606, 485.546 272.394 C 487.898 255.494, 487.145 218.197, 484.132 202.350 C 471.506 135.950, 434.314 80.924, 378.393 45.909 C 350.402 28.382, 322.253 17.367, 291.500 11.907 C 275.370 9.043, 239.653 8.366, 223.541 10.619 M 207.922 26.518 C 164.171 34.636, 107.928 71.410, 77.967 111.488 C 55.839 141.087, 39.924 179.092, 38.296 206.224 C 37.680 216.477, 38.415 219, 42.014 219 C 44.387 219, 46.160 214.305, 50.532 196.439 C 60.819 154.398, 78.008 123.078, 106.345 94.741 C 142.517 58.568, 188.607 36.023, 234.632 31.988 C 247.207 30.886, 250.569 29.550, 247.400 26.914 C 244.980 24.901, 218.089 24.631, 207.922 26.518 M 263.189 25.645 C 260.498 26.239, 259.147 28.855, 260.954 29.971 C 261.639 30.395, 266.092 31.054, 270.850 31.436 C 306.598 34.307, 344.071 49.737, 374 73.909 C 378.125 77.240, 381.807 79.974, 382.183 79.983 C 383.831 80.024, 383.958 75.819, 382.399 72.800 C 377.494 63.299, 352.414 46.130, 329.814 36.802 C 310.720 28.921, 297.465 25.911, 280 25.487 C 272.025 25.293, 264.460 25.365, 263.189 25.645 M 227.496 40.568 C 206.725 43.396, 189.218 48.845, 169.875 58.505 C 115.957 85.431, 75.550 133.590, 61.475 187.703 C 57.669 202.337, 57.366 206.366, 59.886 208.886 C 61.982 210.982, 62.430 211, 112.345 211 C 161.670 211, 162.727 211.041, 164.527 213.030 C 165.983 214.639, 166.166 215.626, 165.409 217.780 L 164.453 220.500 110.761 221 C 63.376 221.441, 56.883 221.687, 55.475 223.095 C 50.539 228.034, 49.558 268.927, 53.895 289 C 68.017 354.367, 105.861 402.502, 165.500 430.952 C 190.408 442.834, 217.339 449.977, 237.295 449.994 C 243.181 449.999, 244.419 449.671, 246.545 447.545 L 249 445.091 248.867 381.295 C 248.704 303.504, 247.960 270.815, 246.339 270.278 C 245.701 270.066, 243.546 272.351, 241.552 275.356 C 235.848 283.949, 228.418 288.792, 219.531 289.709 C 212.919 290.391, 207.795 288.733, 204.532 284.856 C 201.445 281.187, 200.579 278.060, 201.414 273.606 C 202.707 266.715, 209.532 262.989, 217.119 265.032 C 221.425 266.192, 224.278 265.162, 229.929 260.406 C 236.878 254.559, 240.980 239.531, 238.051 230.655 C 236.560 226.138, 235.903 225.780, 223.425 222.701 C 211.190 219.681, 202.870 215.584, 197.297 209.835 C 178.686 190.636, 198.177 169.494, 238.213 165.453 C 249.557 164.307, 248.460 170.838, 248.773 102.604 C 249.042 43.968, 249.015 43.015, 247.023 41.023 C 244.659 38.659, 241.976 38.596, 227.496 40.568 M 261.250 40.031 L 259 40.936 258.769 96.218 C 258.642 126.623, 258.548 153.641, 258.562 156.257 C 258.597 163.165, 259.984 164.092, 272.567 165.620 C 290.183 167.760, 300.963 172.014, 309.696 180.274 C 319.536 189.580, 320.173 199.625, 311.510 208.886 C 303.107 217.869, 290.185 222.413, 268.977 223.843 C 257.793 224.598, 256.690 224.856, 254.256 227.290 C 251.968 229.577, 251.627 230.741, 251.639 236.210 C 251.656 243.957, 254.207 250.099, 260.032 256.419 C 268.075 265.145, 275.410 267.826, 284.655 265.418 C 291.615 263.605, 293.429 263.635, 297.643 265.635 C 306.649 269.908, 305.954 282.423, 296.456 287.021 C 288.956 290.652, 274.471 289.132, 264.693 283.687 C 261.428 281.869, 260.753 281.776, 259.958 283.034 C 259.408 283.903, 259.024 317.380, 259.015 365.250 C 258.997 459.205, 257.764 450, 270.369 450 C 289.675 450, 318.916 441.765, 343.152 429.502 C 380.623 410.543, 406.384 384.983, 426.303 347 C 443.648 313.925, 453 277.530, 453 243.098 C 453 228.688, 452.031 223.622, 448.961 221.979 C 447.837 221.377, 427.657 221, 396.622 221 L 346.113 221 344.557 218.777 C 342.553 215.917, 342.592 215.408, 345 213 C 346.946 211.054, 348.333 211, 396.345 211 C 452.301 211, 449.009 211.505, 448.991 202.921 C 448.979 197.269, 444.899 179.241, 440.861 167 C 432.056 140.307, 414.276 107.958, 402.166 96.598 C 398.352 93.019, 396.755 93.944, 395.048 100.724 L 393.874 105.387 388.262 98.943 C 372.893 81.299, 356.647 68.859, 334.447 57.735 C 316.155 48.569, 298.582 43.177, 278.136 40.455 C 265.934 38.831, 264.337 38.790, 261.250 40.031 M 239.874 178.967 C 224.917 180.872, 207.668 187.525, 204.280 192.695 C 202.926 194.762, 202.937 195.254, 204.383 197.461 C 206.335 200.441, 218.093 206.166, 227 208.472 C 237.111 211.091, 264.318 211.717, 275.044 209.578 C 283.466 207.898, 294.875 203.328, 298.234 200.288 C 300.751 198.010, 300.499 192.806, 297.750 190.285 C 294.174 187.004, 285.450 183.033, 277.160 180.913 C 268.372 178.665, 249.834 177.698, 239.874 178.967" stroke="none" fill="currentcolor" fill-rule="evenodd"/>
</svg>